<svg width="190" height="33" viewBox="0 0 190 33" fill="none" xmlns="http://www.w3.org/2000/svg">
<path d="M20.52 31.92C18.6533 31.92 16.76 31.72 14.84 31.32C12.92 30.9467 11.08 30.3733 9.32 29.6C7.58667 28.8533 6.02667 27.92 4.64 26.8C3.25333 25.68 2.16 24.3867 1.36 22.92C0.56 21.4267 0.16 19.76 0.16 17.92C0.16 16.6933 0.386667 15.4933 0.84 14.32C1.29333 13.12 1.94667 12.0533 2.8 11.12C3.68 10.16 4.74667 9.4 6 8.84C7.28 8.25333 8.74667 7.96 10.4 7.96C10.9333 7.96 11.32 8.01333 11.56 8.12C11.8267 8.22667 11.96 8.34667 11.96 8.48C11.96 8.66667 11.76 8.76 11.36 8.76C9.2 8.76 7.45333 9.14667 6.12 9.92C4.78667 10.6933 3.81333 11.72 3.2 13C2.58667 14.2533 2.28 15.6267 2.28 17.12C2.28 18.8267 2.65333 20.4 3.4 21.84C4.17333 23.2533 5.2 24.5067 6.48 25.6C7.78667 26.6933 9.25333 27.6133 10.88 28.36C12.5333 29.1333 14.2533 29.72 16.04 30.12C17.8267 30.52 19.5733 30.72 21.28 30.72C23.36 30.72 25.2533 30.4667 26.96 29.96C28.6667 29.4533 30.0267 28.6933 31.04 27.68C32.08 26.6933 32.6 25.4667 32.6 24C32.6 22.8267 32.28 21.7733 31.64 20.84C31 19.88 30.28 19.0133 29.48 18.24C29.1867 17.9467 28.88 17.6533 28.56 17.36C28.2667 17.0667 27.96 16.7867 27.64 16.52C26.8133 15.7733 26.0133 15.0133 25.24 14.24C24.4667 13.44 23.8267 12.5867 23.32 11.68C22.8133 10.7467 22.56 9.72 22.56 8.6C22.56 7.26667 22.92 6.12 23.64 5.16C24.36 4.17333 25.32 3.36 26.52 2.72C27.7467 2.08 29.0933 1.61333 30.56 1.32C32.0533 0.999999 33.5467 0.84 35.04 0.84C36.7467 0.84 37.9867 1.08 38.76 1.56C39.5333 2.04 39.92 2.73333 39.92 3.64C39.92 4.28 39.7067 4.94667 39.28 5.64C38.88 6.33333 38.32 6.96 37.6 7.52C36.9067 8.05333 36.1067 8.45333 35.2 8.72C34.9333 8.8 34.7067 8.84 34.52 8.84C34.3333 8.84 34.2133 8.77333 34.16 8.64C34.16 8.48 34.2667 8.33333 34.48 8.2C34.5333 8.14667 34.6133 8.09333 34.72 8.04C34.8533 7.98667 34.9867 7.90667 35.12 7.8C36.24 7.13333 36.9867 6.45333 37.36 5.76C37.7333 5.04 37.92 4.42666 37.92 3.92C37.92 3.30666 37.6267 2.82667 37.04 2.48C36.4533 2.10667 35.4933 1.92 34.16 1.92C32.64 1.92 31.16 2.16 29.72 2.64C28.28 3.12 27.0933 3.84 26.16 4.8C25.2533 5.76 24.8 6.96 24.8 8.4C24.8 9.09333 24.9333 9.74667 25.2 10.36C25.4933 10.9733 25.88 11.5733 26.36 12.16C26.8933 12.8267 27.4667 13.4267 28.08 13.96C28.6933 14.4667 29.2933 14.9867 29.88 15.52C30.7333 16.24 31.56 16.9867 32.36 17.76C33.16 18.5333 33.8133 19.3733 34.32 20.28C34.8533 21.1867 35.12 22.1867 35.12 23.28C35.12 24.64 34.7333 25.8533 33.96 26.92C33.2133 28.0133 32.16 28.92 30.8 29.64C29.4667 30.3867 27.92 30.9467 26.16 31.32C24.4 31.72 22.52 31.92 20.52 31.92ZM48.0794 12.8C47.7594 12.8 47.5327 12.72 47.3994 12.56C47.266 12.3733 47.1994 12.1467 47.1994 11.88C47.1994 11.5867 47.2527 11.3333 47.3594 11.12C47.466 10.9067 47.746 10.72 48.1994 10.56C48.6794 10.4 49.186 10.28 49.7194 10.2C50.2794 10.12 50.706 10.08 50.9994 10.08C51.3194 10.08 51.4794 10.1467 51.4794 10.28C51.4794 10.3867 51.4127 10.48 51.2794 10.56C51.226 10.5867 51.146 10.6267 51.0394 10.68C50.9594 10.7333 50.8527 10.7867 50.7194 10.84C50.5327 10.92 50.3194 11.0267 50.0794 11.16C49.866 11.2667 49.7327 11.4 49.6794 11.56C49.5194 11.9067 49.2927 12.2 48.9994 12.44C48.706 12.68 48.3994 12.8 48.0794 12.8ZM41.4394 26.32C40.6927 26.32 40.0127 26.1733 39.3994 25.88C38.8127 25.5867 38.5194 25.0267 38.5194 24.2C38.5194 23.4 38.706 22.6267 39.0794 21.88C39.4527 21.1333 39.9194 20.4267 40.4794 19.76C41.066 19.0933 41.626 18.5067 42.1594 18C42.6127 17.6 42.9727 17.28 43.2394 17.04C43.2127 17.0133 43.1994 16.96 43.1994 16.88C43.1994 16.6667 43.2927 16.4533 43.4794 16.24C43.7727 15.8133 44.2527 15.4533 44.9194 15.16C45.0794 15.1067 45.2394 15.08 45.3994 15.08C45.746 15.08 46.0927 15.16 46.4394 15.32C46.786 15.4533 46.9594 15.68 46.9594 16C46.9594 16.1867 46.8927 16.36 46.7594 16.52C46.626 16.68 46.506 16.8 46.3994 16.88C46.186 17.04 45.8527 17.32 45.3994 17.72C44.9727 18.0933 44.506 18.5333 43.9994 19.04C43.4927 19.52 42.9994 20 42.5194 20.48C42.066 20.9333 41.7194 21.32 41.4794 21.64C40.546 22.84 40.0794 23.7467 40.0794 24.36C40.0794 24.6267 40.186 24.8533 40.3994 25.04C40.6394 25.2 41.0527 25.28 41.6394 25.28C42.5727 25.28 43.4927 25.1333 44.3994 24.84C45.3327 24.52 46.186 24.16 46.9594 23.76C47.5994 23.44 48.1994 23.08 48.7594 22.68C49.346 22.28 49.9194 21.8667 50.4794 21.44C51.0394 20.9867 51.5994 20.52 52.1594 20.04C52.746 19.56 53.3327 19.08 53.9194 18.6C53.9994 18.5733 54.0927 18.56 54.1994 18.56C54.4127 18.56 54.5194 18.6533 54.5194 18.84C54.5194 19 54.4527 19.1467 54.3194 19.28C54.1594 19.4933 53.826 19.84 53.3194 20.32C52.8127 20.8 52.186 21.3467 51.4394 21.96C50.7194 22.5733 49.906 23.1733 48.9994 23.76C48.0927 24.3467 47.1594 24.8533 46.1994 25.28C45.6927 25.4933 44.986 25.72 44.0794 25.96C43.1727 26.2 42.2927 26.32 41.4394 26.32ZM49.9413 27.24C49.4879 27.24 49.2613 27.0267 49.2613 26.6C49.2613 26.3333 49.3279 26.04 49.4613 25.72C49.6213 25.4 49.8079 25.0533 50.0213 24.68C50.3679 24.0667 50.7679 23.4267 51.2213 22.76C51.6746 22.0933 52.0479 21.5467 52.3413 21.12C52.6079 20.7733 52.9813 20.28 53.4613 19.64C53.9679 19 54.4213 18.32 54.8213 17.6C55.1146 17.1467 55.3413 16.72 55.5013 16.32C55.6613 15.8933 55.7413 15.52 55.7413 15.2C55.7413 14.8533 55.6213 14.5867 55.3813 14.4C55.0613 14.16 54.9013 13.88 54.9013 13.56C54.9013 13.3467 55.0213 13.24 55.2613 13.24C55.4213 13.24 55.6213 13.32 55.8613 13.48C56.0479 13.5867 56.2479 13.7333 56.4613 13.92C56.7013 14.1067 56.9146 14.32 57.1013 14.56C57.1813 14.6667 57.2613 14.7733 57.3413 14.88C57.4213 14.96 57.5013 15.0667 57.5813 15.2C57.7413 15.4667 57.8213 15.7733 57.8213 16.12C57.8213 16.5467 57.6746 17 57.3813 17.48C56.9013 18.3067 56.3279 19.08 55.6613 19.8C55.0213 20.4933 54.3813 21.1867 53.7413 21.88C54.6213 21.0533 55.5413 20.2267 56.5013 19.4C57.4879 18.5733 58.3946 17.88 59.2213 17.32C60.0746 16.7333 60.7546 16.4267 61.2613 16.4C61.3679 16.3733 61.4613 16.36 61.5413 16.36C61.6479 16.36 61.7413 16.36 61.8213 16.36C62.5946 16.36 63.1279 16.5733 63.4213 17C63.5546 17.2133 63.6346 17.4533 63.6613 17.72C63.6879 17.96 63.7013 18.2 63.7013 18.44C63.7013 18.8133 63.6079 19.28 63.4213 19.84C63.2613 20.3733 63.0746 20.9067 62.8613 21.44C62.7546 21.7067 62.6479 21.96 62.5413 22.2C62.4346 22.44 62.3413 22.6667 62.2613 22.88C62.3946 22.72 62.5279 22.5467 62.6613 22.36C62.8213 22.1733 62.9679 21.9867 63.1013 21.8C63.4479 21.3733 63.7946 20.9467 64.1413 20.52C64.5146 20.0933 64.8613 19.7467 65.1813 19.48C65.7413 19 66.1946 18.76 66.5413 18.76C66.6479 18.76 66.7546 18.7867 66.8613 18.84C66.9946 18.9467 67.0879 19.0933 67.1413 19.28C67.2213 19.44 67.2746 19.6 67.3013 19.76C67.3546 20 67.4079 20.3067 67.4613 20.68C67.5413 21.0533 67.6479 21.4667 67.7813 21.92C67.9146 22.3467 68.0879 22.7733 68.3013 23.2C68.5413 23.6267 68.8346 23.9867 69.1813 24.28C69.4746 24.5733 69.9546 24.72 70.6213 24.72C71.1546 24.72 71.7146 24.64 72.3013 24.48C72.8879 24.32 73.3946 24.1333 73.8213 23.92C74.9146 23.3867 75.9813 22.7467 77.0213 22C78.0613 21.2533 79.1279 20.44 80.2213 19.56L82.7013 17.52C82.9146 17.36 83.0879 17.28 83.2213 17.28C83.3546 17.28 83.4346 17.3067 83.4613 17.36V17.44C83.4613 17.52 83.4479 17.6133 83.4213 17.72C83.3946 17.8267 83.3279 17.9467 83.2213 18.08C83.0346 18.3467 82.7546 18.6933 82.3813 19.12C82.0079 19.5467 81.5413 20 80.9813 20.48C80.3679 20.9867 79.6346 21.56 78.7813 22.2C77.9279 22.84 77.0213 23.4533 76.0613 24.04C75.1279 24.6267 74.1813 25.12 73.2213 25.52C72.7146 25.7067 72.2213 25.8667 71.7413 26C71.2613 26.1333 70.7946 26.2 70.3413 26.2C69.3013 26.2 68.4746 25.9733 67.8613 25.52C67.2746 25.04 66.8079 24.48 66.4613 23.84C66.3013 23.5467 66.1546 23.24 66.0213 22.92C65.9146 22.5733 65.8213 22.2533 65.7413 21.96C65.6879 21.7467 65.6346 21.5467 65.5813 21.36C65.5546 21.1467 65.5146 20.96 65.4613 20.8C65.1679 21.0667 64.8746 21.3867 64.5813 21.76C64.2879 22.1333 63.9946 22.5067 63.7013 22.88C63.3813 23.3067 63.0879 23.7067 62.8213 24.08C62.5546 24.4267 62.3413 24.7067 62.1813 24.92C61.8879 25.2933 61.5279 25.48 61.1013 25.48C60.8079 25.48 60.5546 25.36 60.3413 25.12C60.1546 24.88 60.1013 24.5333 60.1813 24.08C60.2079 23.9467 60.2479 23.7867 60.3013 23.6C60.3546 23.4133 60.4079 23.2133 60.4613 23C60.5413 22.7867 60.6213 22.5733 60.7013 22.36C60.7813 22.12 60.8613 21.88 60.9413 21.64C61.1279 21.16 61.2879 20.6933 61.4213 20.24C61.5813 19.76 61.6746 19.36 61.7013 19.04C61.7279 18.9333 61.7413 18.84 61.7413 18.76C61.7413 18.68 61.7413 18.6 61.7413 18.52C61.7413 18.2267 61.6879 18.04 61.5813 17.96C61.5013 17.8533 61.3946 17.8 61.2613 17.8C60.9946 17.8 60.6613 17.9067 60.2613 18.12C59.8613 18.3067 59.5013 18.5067 59.1813 18.72C58.8879 18.9067 58.4213 19.28 57.7813 19.84C57.1679 20.3733 56.4879 20.9867 55.7413 21.68C54.9946 22.3467 54.2879 22.9867 53.6213 23.6C53.1946 24 52.7813 24.4133 52.3813 24.84C52.0079 25.24 51.6613 25.6133 51.3413 25.96C50.9946 26.3333 50.7013 26.64 50.4613 26.88C50.2213 27.12 50.0479 27.24 49.9413 27.24ZM86.5231 31.04C85.8031 31.04 85.1898 30.8 84.6831 30.32C84.2031 29.84 83.8031 29.2133 83.4831 28.44C83.1631 27.6667 82.9365 26.8267 82.8031 25.92C82.6698 25.0133 82.6031 24.12 82.6031 23.24C82.6031 22.4933 82.6431 21.8133 82.7231 21.2C82.8298 20.5867 82.9498 20.0933 83.0831 19.72C82.9765 19.4533 82.8298 19.12 82.6431 18.72C82.4831 18.32 82.4031 17.96 82.4031 17.64C82.4031 17.24 82.5365 17.04 82.8031 17.04C82.9898 17.04 83.2031 17.1733 83.4431 17.44C84.9365 19.3067 86.5498 20.9733 88.2831 22.44C90.0165 23.9067 91.7765 25.0133 93.5631 25.76C94.6565 24.7467 95.6565 23.6667 96.5631 22.52C97.4698 21.3467 98.2831 20.1867 99.0031 19.04C99.7498 17.8667 100.403 16.7867 100.963 15.8C101.523 14.7867 101.99 13.9733 102.363 13.36C102.416 13.2 102.47 13.0533 102.523 12.92C102.576 12.76 102.63 12.6133 102.683 12.48C101.696 13.3067 100.603 14.16 99.4031 15.04C98.2298 15.92 97.0031 16.7333 95.7231 17.48C94.4698 18.2267 93.2298 18.8267 92.0031 19.28C90.7765 19.7333 89.6165 19.9733 88.5231 20C87.7231 20 87.1365 19.7467 86.7631 19.24C86.4165 18.7333 86.2965 18.2133 86.4031 17.68C86.5898 16.56 87.0431 15.4933 87.7631 14.48C88.4831 13.44 89.3765 12.4933 90.4431 11.64C90.5765 11.56 90.7098 11.52 90.8431 11.52C91.0031 11.52 91.1365 11.5333 91.2431 11.56C91.3765 11.6133 91.4698 11.68 91.5231 11.76C91.6565 11.8933 91.6298 12.0267 91.4431 12.16C91.0698 12.4533 90.6831 12.76 90.2831 13.08C89.9098 13.3733 89.5498 13.7067 89.2031 14.08C88.8565 14.48 88.5498 14.9067 88.2831 15.36C88.0431 15.8133 87.9231 16.3333 87.9231 16.92C87.9231 17.8 88.5365 18.24 89.7631 18.24C90.9365 18.24 92.1365 17.9867 93.3631 17.48C94.6165 16.9733 95.8565 16.3067 97.0831 15.48C98.3365 14.6533 99.5498 13.7333 100.723 12.72C101.923 11.7067 103.043 10.6933 104.083 9.68C104.75 8.74667 105.39 8.13333 106.003 7.84C106.616 7.52 107.123 7.36 107.523 7.36C107.976 7.36 108.283 7.44 108.443 7.6C108.63 7.73333 108.723 7.90667 108.723 8.12C108.723 8.30667 108.67 8.49333 108.563 8.68C108.483 8.84 108.39 8.98667 108.283 9.12C107.403 10.2667 106.416 11.5867 105.323 13.08C104.23 14.5467 103.096 16.0667 101.923 17.64C100.776 19.16 99.6031 20.6667 98.4031 22.16C97.2031 23.6267 96.0165 24.9867 94.8431 26.24C96.0431 26.6667 97.2565 27.0133 98.4831 27.28C99.7365 27.5733 100.976 27.72 102.203 27.72C104.31 27.72 106.376 27.48 108.403 27C110.43 26.52 112.336 25.8667 114.123 25.04C115.91 24.1867 117.51 23.2 118.923 22.08C120.336 20.96 121.496 19.7733 122.403 18.52C123.683 16.7867 124.323 15.0267 124.323 13.24C124.323 11.5333 123.63 9.88 122.243 8.28C120.856 6.68 118.563 5.29333 115.363 4.12C114.03 3.61333 112.47 3.25333 110.683 3.04C108.896 2.82667 107.056 2.72 105.163 2.72C103.776 2.72 102.39 2.77333 101.003 2.88C99.6431 2.96 98.3365 3.10666 97.0831 3.32C94.7098 3.69333 92.3231 4.26667 89.9231 5.04C87.5498 5.81333 85.3365 6.76 83.2831 7.88C81.2298 9 79.4965 10.3067 78.0831 11.8C76.6698 13.2933 75.7498 14.9467 75.3231 16.76C75.2431 17.1067 75.2031 17.44 75.2031 17.76C75.2031 18.8533 75.5365 19.7867 76.2031 20.56C76.8965 21.3067 77.6165 21.7333 78.3631 21.84C78.6565 21.8933 78.8565 21.9733 78.9631 22.08C79.0165 22.1867 79.0431 22.24 79.0431 22.24C79.0431 22.3733 78.9765 22.48 78.8431 22.56C78.6031 22.8 78.2698 22.8933 77.8431 22.84C77.1498 22.7067 76.4431 22.3733 75.7231 21.84C75.0298 21.3067 74.4431 20.6267 73.9631 19.8C73.4831 18.9467 73.2431 18.0133 73.2431 17C73.2431 16.6267 73.2831 16.24 73.3631 15.84C73.7098 14.2133 74.4298 12.7333 75.5231 11.4C76.6431 10.04 78.0165 8.82667 79.6431 7.76C81.2965 6.69333 83.1098 5.77333 85.0831 5C87.0831 4.2 89.1498 3.54667 91.2831 3.04C93.4431 2.50667 95.5631 2.12 97.6431 1.88C98.5765 1.74667 99.5365 1.66667 100.523 1.64C101.51 1.58667 102.51 1.56 103.523 1.56C105.576 1.56 107.643 1.68 109.723 1.92C111.83 2.16 113.79 2.53333 115.603 3.04C119.736 4.18667 122.696 5.65333 124.483 7.44C126.296 9.22667 127.203 11.1333 127.203 13.16C127.203 14.0667 127.043 14.9733 126.723 15.88C126.403 16.7867 125.936 17.68 125.323 18.56C124.363 19.9467 123.083 21.2667 121.483 22.52C119.91 23.7733 118.096 24.8933 116.043 25.88C114.016 26.84 111.83 27.5867 109.483 28.12C107.163 28.68 104.776 28.96 102.323 28.96C100.856 28.96 99.3898 28.8133 97.9231 28.52C96.4831 28.2533 95.0565 27.88 93.6431 27.4C93.1098 27.88 92.4298 28.4 91.6031 28.96C90.8031 29.52 89.9498 30 89.0431 30.4C88.1631 30.8267 87.3231 31.04 86.5231 31.04ZM87.4431 29.2C87.5231 29.2267 87.6431 29.24 87.8031 29.24C88.4698 29.24 89.2031 28.9867 90.0031 28.48C90.8031 28 91.5631 27.4667 92.2831 26.88C90.8165 26.2667 89.3898 25.5067 88.0031 24.6C86.6165 23.6667 85.2965 22.5467 84.0431 21.24C84.0165 21.9067 84.0431 22.6667 84.1231 23.52C84.2031 24.3733 84.3631 25.2 84.6031 26C84.8431 26.8 85.1898 27.4933 85.6431 28.08C86.1231 28.6667 86.7231 29.04 87.4431 29.2ZM133.313 33C132.086 33 131.193 32.6933 130.633 32.08C130.073 31.4667 129.793 30.68 129.793 29.72C129.793 28.68 130.046 27.5067 130.553 26.2C131.086 24.8933 131.78 23.5733 132.633 22.24C133.513 20.88 134.46 19.6267 135.473 18.48C135.34 18.5067 135.206 18.52 135.073 18.52C134.94 18.52 134.806 18.52 134.673 18.52C133.766 18.52 133.006 18.3067 132.393 17.88C132.126 18.28 131.753 18.72 131.273 19.2C130.793 19.68 130.326 20.1067 129.873 20.48C128.753 21.4133 127.566 22.3067 126.313 23.16C125.06 24.0133 123.82 24.72 122.593 25.28C121.366 25.84 120.22 26.16 119.153 26.24C119.073 26.24 118.966 26.2267 118.833 26.2C118.673 26.1733 118.553 26.12 118.473 26.04C118.366 25.96 118.34 25.88 118.393 25.8C118.446 25.6933 118.5 25.6267 118.553 25.6C118.633 25.5467 118.726 25.5067 118.833 25.48C118.94 25.4267 119.086 25.3867 119.273 25.36C120.18 25.1733 121.18 24.8 122.273 24.24C123.366 23.6533 124.5 22.96 125.673 22.16C126.873 21.3333 128.02 20.4667 129.113 19.56C129.566 19.2133 130.033 18.8267 130.513 18.4C130.993 17.9467 131.42 17.5333 131.793 17.16C131.526 16.7333 131.393 16.28 131.393 15.8C131.393 15.16 131.566 14.52 131.913 13.88C132.26 13.24 132.7 12.6533 133.233 12.12C133.766 11.56 134.34 11.12 134.953 10.8C135.566 10.4533 136.14 10.28 136.673 10.28C136.966 10.28 137.166 10.3467 137.273 10.48C137.406 10.6133 137.473 10.76 137.473 10.92C137.473 11.2667 137.353 11.5333 137.113 11.72C136.926 11.88 136.62 12.1733 136.193 12.6C135.793 13.0267 135.353 13.5067 134.873 14.04C134.393 14.5467 133.953 15.0533 133.553 15.56C133.18 16.04 132.926 16.44 132.793 16.76C132.873 16.8933 132.993 17.0133 133.153 17.12C133.34 17.2267 133.646 17.28 134.073 17.28C134.713 17.28 135.34 17.1467 135.953 16.88C136.566 16.6133 137.14 16.2933 137.673 15.92C137.833 15.84 138.006 15.8 138.193 15.8C138.486 15.8 138.766 15.8667 139.033 16C139.326 16.1067 139.526 16.2267 139.633 16.36C139.66 16.3867 139.673 16.44 139.673 16.52C139.673 16.7867 139.526 17.1067 139.233 17.48C139.073 17.6667 138.886 17.8667 138.673 18.08C138.486 18.2933 138.3 18.5067 138.113 18.72C137.366 19.5467 136.593 20.48 135.793 21.52C135.02 22.5333 134.313 23.5733 133.673 24.64C133.033 25.68 132.513 26.6667 132.113 27.6C131.713 28.56 131.513 29.3867 131.513 30.08C131.513 30.5867 131.646 30.9867 131.913 31.28C132.206 31.6 132.7 31.76 133.393 31.76C133.526 31.76 133.673 31.7467 133.833 31.72C134.02 31.72 134.206 31.7067 134.393 31.68C135.06 31.5733 135.82 31.3333 136.673 30.96C137.526 30.5867 138.38 30.1467 139.233 29.64C140.086 29.16 140.82 28.72 141.433 28.32C141.486 28.2667 141.58 28.24 141.713 28.24C141.9 28.24 142.006 28.32 142.033 28.48V28.56C142.033 28.6933 141.953 28.84 141.793 29C141.74 29.0533 141.646 29.1333 141.513 29.24C141.38 29.3733 141.206 29.5333 140.993 29.72C140.14 30.4667 139.193 31.12 138.153 31.68C137.113 32.2667 136.02 32.6533 134.873 32.84C134.606 32.8667 134.34 32.8933 134.073 32.92C133.806 32.9733 133.553 33 133.313 33ZM151.087 12.8C150.767 12.8 150.541 12.72 150.407 12.56C150.274 12.3733 150.207 12.1467 150.207 11.88C150.207 11.5867 150.261 11.3333 150.367 11.12C150.474 10.9067 150.754 10.72 151.207 10.56C151.687 10.4 152.194 10.28 152.727 10.2C153.287 10.12 153.714 10.08 154.007 10.08C154.327 10.08 154.487 10.1467 154.487 10.28C154.487 10.3867 154.421 10.48 154.287 10.56C154.234 10.5867 154.154 10.6267 154.047 10.68C153.967 10.7333 153.861 10.7867 153.727 10.84C153.541 10.92 153.327 11.0267 153.087 11.16C152.874 11.2667 152.741 11.4 152.687 11.56C152.527 11.9067 152.301 12.2 152.007 12.44C151.714 12.68 151.407 12.8 151.087 12.8ZM144.447 26.32C143.701 26.32 143.021 26.1733 142.407 25.88C141.821 25.5867 141.527 25.0267 141.527 24.2C141.527 23.4 141.714 22.6267 142.087 21.88C142.461 21.1333 142.927 20.4267 143.487 19.76C144.074 19.0933 144.634 18.5067 145.167 18C145.621 17.6 145.981 17.28 146.247 17.04C146.221 17.0133 146.207 16.96 146.207 16.88C146.207 16.6667 146.301 16.4533 146.487 16.24C146.781 15.8133 147.261 15.4533 147.927 15.16C148.087 15.1067 148.247 15.08 148.407 15.08C148.754 15.08 149.101 15.16 149.447 15.32C149.794 15.4533 149.967 15.68 149.967 16C149.967 16.1867 149.901 16.36 149.767 16.52C149.634 16.68 149.514 16.8 149.407 16.88C149.194 17.04 148.861 17.32 148.407 17.72C147.981 18.0933 147.514 18.5333 147.007 19.04C146.501 19.52 146.007 20 145.527 20.48C145.074 20.9333 144.727 21.32 144.487 21.64C143.554 22.84 143.087 23.7467 143.087 24.36C143.087 24.6267 143.194 24.8533 143.407 25.04C143.647 25.2 144.061 25.28 144.647 25.28C145.581 25.28 146.501 25.1333 147.407 24.84C148.341 24.52 149.194 24.16 149.967 23.76C150.607 23.44 151.207 23.08 151.767 22.68C152.354 22.28 152.927 21.8667 153.487 21.44C154.047 20.9867 154.607 20.52 155.167 20.04C155.754 19.56 156.341 19.08 156.927 18.6C157.007 18.5733 157.101 18.56 157.207 18.56C157.421 18.56 157.527 18.6533 157.527 18.84C157.527 19 157.461 19.1467 157.327 19.28C157.167 19.4933 156.834 19.84 156.327 20.32C155.821 20.8 155.194 21.3467 154.447 21.96C153.727 22.5733 152.914 23.1733 152.007 23.76C151.101 24.3467 150.167 24.8533 149.207 25.28C148.701 25.4933 147.994 25.72 147.087 25.96C146.181 26.2 145.301 26.32 144.447 26.32ZM154.829 26.64C154.349 26.6933 154.002 26.6133 153.789 26.4C153.602 26.1867 153.509 25.9067 153.509 25.56C153.509 25.2133 153.576 24.8133 153.709 24.36C153.869 23.9067 154.042 23.4667 154.229 23.04C154.416 22.5867 154.602 22.1467 154.789 21.72C155.002 21.2667 155.162 20.8667 155.269 20.52C155.562 19.6933 155.816 18.88 156.029 18.08C156.269 17.28 156.389 16.6 156.389 16.04C156.389 15.4267 156.229 15.0533 155.909 14.92C155.536 14.8133 155.322 14.6133 155.269 14.32V14.2C155.269 13.9867 155.416 13.88 155.709 13.88C155.869 13.88 156.002 13.8933 156.109 13.92C156.322 13.9467 156.549 14.0133 156.789 14.12C157.056 14.2 157.309 14.32 157.549 14.48C157.736 14.5867 157.909 14.7067 158.069 14.84C158.256 14.9467 158.402 15.1067 158.509 15.32C158.642 15.5333 158.709 15.8133 158.709 16.16C158.709 16.48 158.656 16.8133 158.549 17.16C158.362 17.7467 158.136 18.4 157.869 19.12C157.602 19.8133 157.296 20.52 156.949 21.24C156.869 21.4267 156.749 21.7067 156.589 22.08C156.456 22.4267 156.269 22.92 156.029 23.56C157.122 22.28 158.229 21.0267 159.349 19.8C160.496 18.5733 161.602 17.4667 162.669 16.48C163.762 15.4933 164.762 14.7067 165.669 14.12C166.576 13.5067 167.349 13.1733 167.989 13.12C168.256 13.0933 168.509 13.16 168.749 13.32C169.016 13.48 169.149 13.76 169.149 14.16C169.149 14.32 169.136 14.4533 169.109 14.56C169.082 14.7467 168.962 14.84 168.749 14.84C168.562 14.84 168.442 14.76 168.389 14.6V14.48C167.962 14.5067 167.322 14.8133 166.469 15.4C165.616 15.9867 164.656 16.7333 163.589 17.64C162.522 18.52 161.469 19.4533 160.429 20.44C159.389 21.4267 158.456 22.36 157.629 23.24C156.829 24.12 156.269 24.8133 155.949 25.32C155.842 25.48 155.736 25.64 155.629 25.8C155.549 25.9333 155.469 26.0667 155.389 26.2C155.202 26.44 155.016 26.5867 154.829 26.64ZM175.861 26.52C175.247 26.52 174.661 26.4533 174.101 26.32C173.541 26.1867 173.034 25.9867 172.581 25.72C171.407 24.9733 170.821 23.9867 170.821 22.76C170.821 21.8 171.141 20.8267 171.781 19.84C172.447 18.8267 173.301 17.8667 174.341 16.96C175.381 16.0533 176.474 15.3067 177.621 14.72C178.314 14.3467 179.007 14.08 179.701 13.92C180.394 13.76 181.007 13.68 181.541 13.68C182.474 13.68 183.087 13.8667 183.381 14.24C183.701 14.5867 183.861 15 183.861 15.48C183.861 15.9867 183.701 16.48 183.381 16.96C183.061 17.4133 182.607 17.8667 182.021 18.32C181.007 19.1467 179.621 19.88 177.861 20.52C176.127 21.16 174.341 21.6133 172.501 21.88C172.234 22.4133 172.101 22.9067 172.101 23.36C172.154 24.1067 172.541 24.64 173.261 24.96C174.007 25.2533 174.834 25.4 175.741 25.4C176.061 25.4 176.367 25.3867 176.661 25.36C176.954 25.3333 177.234 25.2933 177.501 25.24C178.834 24.9733 180.194 24.4933 181.581 23.8C182.994 23.1067 184.354 22.3067 185.661 21.4C186.967 20.4933 188.141 19.5867 189.181 18.68C189.341 18.6267 189.447 18.6 189.501 18.6C189.687 18.6 189.781 18.6933 189.781 18.88C189.781 19.0133 189.727 19.1467 189.621 19.28C189.434 19.6 189.047 20.0133 188.461 20.52C187.901 21.0267 187.261 21.5467 186.541 22.08C185.821 22.5867 185.114 23.08 184.421 23.56C183.754 24.0133 183.194 24.36 182.741 24.6C181.781 25.1333 180.687 25.5867 179.461 25.96C178.234 26.3333 177.034 26.52 175.861 26.52ZM173.181 20.76C174.034 20.5467 175.021 20.28 176.141 19.96C177.261 19.6133 178.327 19.2133 179.341 18.76C180.354 18.28 181.114 17.76 181.621 17.2C181.834 16.9867 181.981 16.7733 182.061 16.56C182.141 16.32 182.181 16.12 182.181 15.96C182.181 15.8267 182.127 15.7067 182.021 15.6C181.941 15.4933 181.674 15.44 181.221 15.44C180.581 15.44 179.754 15.7067 178.741 16.24C177.727 16.7467 176.714 17.4133 175.701 18.24C174.714 19.04 173.874 19.88 173.181 20.76Z" fill="white"/>
</svg>
